<?xml version="1.0" standalone="no"?><!DOCTYPE svg PUBLIC "-//W3C//DTD SVG 1.1//EN" "http://www.w3.org/Graphics/SVG/1.1/DTD/svg11.dtd"><svg t="1597726175305" class="icon" viewBox="0 0 1024 1024" version="1.1" xmlns="http://www.w3.org/2000/svg" p-id="2881" xmlns:xlink="http://www.w3.org/1999/xlink" width="128" height="128"><defs><style type="text/css"></style></defs><path d="M972.8 409.6h-51.2A409.6 409.6 0 0 0 102.4 409.6H51.2a51.2 51.2 0 0 0-51.2 51.2v204.8a51.2 51.2 0 0 0 51.2 51.2h153.6V409.6a307.2 307.2 0 0 1 614.4 0v384a128 128 0 0 1-128 128H512v102.4h179.2a230.4 230.4 0 0 0 230.4-230.4V716.8h51.2a51.2 51.2 0 0 0 51.2-51.2V460.8a51.2 51.2 0 0 0-51.2-51.2z" p-id="2882"></path><path d="M716.8 563.2h-102.4a102.4 102.4 0 0 1-204.8 0H307.2a204.8 204.8 0 0 0 409.6 0z" p-id="2883"></path></svg>