<?xml version="1.0" standalone="no"?><!DOCTYPE svg PUBLIC "-//W3C//DTD SVG 1.1//EN" "http://www.w3.org/Graphics/SVG/1.1/DTD/svg11.dtd"><svg t="1596522885278" class="icon" viewBox="0 0 1024 1024" version="1.1" xmlns="http://www.w3.org/2000/svg" p-id="2881" xmlns:xlink="http://www.w3.org/1999/xlink" width="128" height="128"><defs><style type="text/css"></style></defs><path d="M1024 396.8l-353.792-51.2L512 25.088 353.792 345.6 0 396.8l256 249.344-60.416 352.768L512 832.512l316.416 166.4L768 646.656zM665.6 665.6l25.6 147.968-132.608-69.632L512 716.8l-47.616 25.088-132.608 69.632L358.4 665.6l9.216-51.2-39.936-40.96-107.52-102.4 148.48-21.504 51.2-7.68 24.064-48.128L512 256l66.56 134.656 24.064 48.128 51.2 7.68 148.48 21.504-107.52 102.4-38.4 37.376z" p-id="2882"></path></svg>